<mxfile host="app.diagrams.net" agent="Mozilla/5.0 (X11; Linux x86_64) AppleWebKit/537.36 (KHTML, like Gecko) Chrome/129.0.0.0 Safari/537.36" version="24.7.7">
  <diagram name="Page-1" id="0Ts9ibK9JVukK6FJ1Lio">
    <mxGraphModel dx="1346" dy="818" grid="1" gridSize="10" guides="1" tooltips="1" connect="1" arrows="1" fold="1" page="1" pageScale="1" pageWidth="850" pageHeight="1100" math="0" shadow="0">
      <root>
        <mxCell id="0" />
        <mxCell id="1" parent="0" />
        <mxCell id="0yTKj22x2rmGOmd5odmY-1" value="" style="rounded=0;whiteSpace=wrap;html=1;" vertex="1" parent="1">
          <mxGeometry x="360" y="400" width="40" height="200" as="geometry" />
        </mxCell>
        <mxCell id="0yTKj22x2rmGOmd5odmY-2" value="" style="rounded=0;whiteSpace=wrap;html=1;rotation=-90;" vertex="1" parent="1">
          <mxGeometry x="401.25" y="358.75" width="40" height="202.5" as="geometry" />
        </mxCell>
        <mxCell id="0yTKj22x2rmGOmd5odmY-3" value="" style="rounded=0;whiteSpace=wrap;html=1;rotation=0;" vertex="1" parent="1">
          <mxGeometry x="480" y="440" width="40" height="160" as="geometry" />
        </mxCell>
        <mxCell id="0yTKj22x2rmGOmd5odmY-4" value="" style="rounded=0;whiteSpace=wrap;html=1;" vertex="1" parent="1">
          <mxGeometry x="600" y="400" width="40" height="200" as="geometry" />
        </mxCell>
        <mxCell id="0yTKj22x2rmGOmd5odmY-5" value="" style="rounded=0;whiteSpace=wrap;html=1;" vertex="1" parent="1">
          <mxGeometry x="760" y="400" width="40" height="200" as="geometry" />
        </mxCell>
        <mxCell id="0yTKj22x2rmGOmd5odmY-7" value="" style="rounded=0;whiteSpace=wrap;html=1;rotation=-90;" vertex="1" parent="1">
          <mxGeometry x="800" y="360" width="40" height="202.5" as="geometry" />
        </mxCell>
        <mxCell id="0yTKj22x2rmGOmd5odmY-9" value="" style="rounded=0;whiteSpace=wrap;html=1;" vertex="1" parent="1">
          <mxGeometry x="850" y="400" width="40" height="200" as="geometry" />
        </mxCell>
        <mxCell id="0yTKj22x2rmGOmd5odmY-10" value="" style="rounded=0;whiteSpace=wrap;html=1;" vertex="1" parent="1">
          <mxGeometry x="1010" y="440" width="40" height="70" as="geometry" />
        </mxCell>
        <mxCell id="0yTKj22x2rmGOmd5odmY-12" value="" style="rounded=0;whiteSpace=wrap;html=1;rotation=-90;" vertex="1" parent="1">
          <mxGeometry x="1090" y="407.5" width="40" height="202.5" as="geometry" />
        </mxCell>
        <mxCell id="0yTKj22x2rmGOmd5odmY-13" value="" style="rounded=0;whiteSpace=wrap;html=1;" vertex="1" parent="1">
          <mxGeometry x="1170" y="500" width="40" height="110" as="geometry" />
        </mxCell>
        <mxCell id="0yTKj22x2rmGOmd5odmY-14" value="" style="rounded=0;whiteSpace=wrap;html=1;rotation=-90;" vertex="1" parent="1">
          <mxGeometry x="1040" y="370" width="40" height="100" as="geometry" />
        </mxCell>
        <mxCell id="0yTKj22x2rmGOmd5odmY-15" value="" style="rounded=0;whiteSpace=wrap;html=1;rotation=0;" vertex="1" parent="1">
          <mxGeometry x="1100" y="400" width="40" height="100" as="geometry" />
        </mxCell>
      </root>
    </mxGraphModel>
  </diagram>
</mxfile>
